<svg xmlns="http://www.w3.org/2000/svg" xmlns:xlink="http://www.w3.org/1999/xlink" x="0px" y="0px" viewBox="0 0 200 41">
    <path fill="#00313D" d="M164,9.7c-0.6,0-1.2,0.2-1.6,0.7c-0.4,0.4-0.7,1-0.7,1.6c0,0.7,0.2,1.2,0.7,1.7c0.5,0.5,1,0.7,1.6,0.7
        c0.6,0,1.2-0.2,1.6-0.7c0.4-0.5,0.7-1,0.7-1.6c0-0.6-0.2-1.2-0.7-1.7C165.2,9.9,164.7,9.7,164,9.7"/>
    <polygon fill="#00313D" points="162.1,31 166,31 166,15.6 162.1,17.9 "/>
    <path fill="#00313D" d="M72.8,21.4c0.4-1,0.9-1.6,1.4-2c0.8-0.6,1.8-0.9,2.8-0.9c1,0,1.9,0.3,2.6,0.8c0.8,0.5,1.3,1.2,1.5,2.1H72.8z
         M76.9,15.2c-2.3,0-4.2,0.8-5.7,2.3c-1.5,1.6-2.3,3.5-2.3,5.8c0,2.3,0.8,4.2,2.3,5.7c1.5,1.5,3.5,2.3,5.9,2.3c1.6,0,2.9-0.3,4-0.8
        c1.1-0.6,2.1-1.4,2.9-2.6l-3.3-1.5c-1,1-2.3,1.5-3.7,1.5c-1.2,0-2.2-0.3-3-1c-0.8-0.6-1.3-1.5-1.4-2.6h12.4l0-0.7
        c0-2.5-0.8-4.6-2.3-6.1C81.3,16,79.3,15.2,76.9,15.2"/>
    <path fill="#00313D" d="M97.9,26.6c-0.8,0.8-1.8,1.3-3,1.3c-1.2,0-2.2-0.4-3-1.3c-0.8-0.9-1.2-2-1.2-3.3c0-1.3,0.4-2.4,1.2-3.2
        c0.8-0.8,1.8-1.3,3-1.3c1.2,0,2.2,0.4,3,1.2c0.8,0.8,1.2,1.9,1.2,3.3C99.1,24.7,98.7,25.8,97.9,26.6 M98.9,17.3
        c-0.7-0.7-1.4-1.2-2.3-1.6c-0.8-0.3-1.7-0.5-2.6-0.5c-2,0-3.7,0.8-5.1,2.3c-1.4,1.5-2.1,3.5-2.1,5.8c0,2.3,0.7,4.2,2.2,5.7
        c1.5,1.5,3.2,2.3,5.2,2.3c0.9,0,1.7-0.2,2.5-0.5c0.8-0.3,1.5-0.8,2.3-1.5V31h3.9V15.6h-3.9L98.9,17.3L98.9,17.3z"/>
    <path fill="#00313D" d="M110.1,15.8c-0.6,0.4-1.1,1-1.4,1.7v-1.9h-3.3V31h3.8v-6.2l0-0.7c0-2.1,0.2-3.6,0.6-4.2
        c0.4-0.7,0.9-1.1,1.4-1.1c0.5,0,1,0.1,1.5,0.3l1.3-3.4c-0.5-0.3-1.3-0.4-1.8-0.4C111.4,15.2,110.7,15.4,110.1,15.8"/>
    <path fill="#00313D" d="M123.9,15.2c-0.7,0-1.5,0.1-2.2,0.4c-0.7,0.3-1.5,0.8-2.4,1.5v-1.6h-3.9V31h3.9v-6.2c0-1.6,0.1-2.6,0.2-3.1
        c0.2-0.9,0.6-1.6,1.2-2.2c0.6-0.5,1.2-0.8,2-0.8c0.6,0,1.1,0.2,1.5,0.5c0.4,0.3,0.7,0.8,0.9,1.4c0.2,0.6,0.2,1.8,0.2,3.7V31h3.8
        V20.9c0-1.8-0.4-3.1-1.3-4C126.8,15.8,125.5,15.2,123.9,15.2"/>
    <path fill="#00313D" d="M142,26.6c-0.8,0.8-1.8,1.3-3,1.3c-1.2,0-2.2-0.4-3-1.2c-0.8-0.8-1.2-1.9-1.2-3.3c0-1.3,0.4-2.4,1.2-3.2
        c0.8-0.8,1.8-1.3,3-1.3c1.2,0,2.2,0.4,3,1.2c0.8,0.8,1.2,1.9,1.2,3.2C143.2,24.7,142.8,25.7,142,26.6 M143.1,16.3
        c-1.3-0.7-2.6-1.1-4.1-1.1c-2,0-3.8,0.7-5.3,2.1c-1.8,1.6-2.7,3.6-2.7,6c0,2.2,0.8,4.2,2.3,5.7c1.6,1.6,3.5,2.4,5.7,2.4
        c1.5,0,2.9-0.4,4.1-1.1c1.2-0.7,2.2-1.7,3-3c0.7-1.3,1.1-2.6,1.1-4.1c0-1.4-0.4-2.8-1.1-4C145.3,18,144.3,17.1,143.1,16.3"/>
    <path fill="#00313D" d="M158.2,22.8c-0.6-0.3-1.2-0.6-1.9-0.7c-0.7-0.2-1.3-0.3-1.9-0.5c-0.6-0.1-1.1-0.3-1.5-0.5
        c-0.4-0.2-0.6-0.6-0.6-1c0-0.6,0.2-1,0.7-1.2c0.5-0.3,1-0.4,1.5-0.4c1.2,0,2.2,0.6,2.6,1.2l2.9-1.7c-0.7-1-1.6-1.7-2.5-2.1
        c-1-0.4-2-0.5-2.9-0.5c-0.7,0-1.5,0.1-2.2,0.3c-0.7,0.2-1.4,0.5-1.9,0.9c-0.6,0.4-1,0.9-1.4,1.5c-0.3,0.6-0.5,1.4-0.5,2.2
        c0,1,0.2,1.7,0.6,2.3c0.4,0.6,0.9,1,1.5,1.3c0.6,0.3,1.2,0.5,1.9,0.7c0.7,0.1,1.3,0.3,1.9,0.4c0.6,0.2,1.1,0.4,1.5,0.6
        c0.4,0.3,0.6,0.6,0.6,1.2c0,0.3-0.1,0.6-0.2,0.8c-0.2,0.2-0.4,0.4-0.6,0.6c-0.2,0.1-0.5,0.3-0.8,0.3c-0.3,0.1-0.6,0.1-0.8,0.1
        c-0.8,0-1.5-0.2-2-0.5c-0.5-0.4-0.9-0.7-1.2-1l-3.1,1.8c0.9,1.1,1.9,1.8,2.9,2.1c1,0.3,2,0.5,3.2,0.5c0.8,0,1.5-0.1,2.3-0.3
        c0.8-0.2,1.5-0.4,2.1-0.8c0.6-0.4,1.1-0.9,1.5-1.5c0.4-0.6,0.6-1.4,0.6-2.3c0-1-0.2-1.8-0.6-2.4C159.3,23.5,158.8,23.1,158.2,22.8"
        />
    <path fill="#00313D" d="M178.3,18.7l-1.2-3h-3.3v-4.8l-3.7,2.1v2.7h-2.2v3h2.2v7.8c0,1.5,0.4,2.6,1.2,3.5c0.8,0.8,1.9,1.3,3.5,1.3
        c1,0,2.1-0.1,3.2-0.4l-1.2-3c0,0-0.1,0-0.1,0c-0.3,0-0.7,0-1.1,0c-0.6,0-1-0.1-1.3-0.4c-0.3-0.3-0.4-0.7-0.4-1.3v-7.5L178.3,18.7
        L178.3,18.7z"/>
    <path fill="#00313D" d="M190.9,15.6L187,26.7l-4-11.1h-4.1l6.1,15.3l-0.9,2.2c-0.2,0.5-0.5,0.8-0.8,0.9c-0.3,0.2-0.7,0.2-1,0.2
        c-0.2,0-0.4,0-0.5,0c-0.1,0-0.3,0-0.4,0c-0.1,0-0.3,0-0.5-0.1c-0.1,0-0.3-0.1-0.5-0.1l1.3,3.3c0.4,0.1,0.9,0.1,1.5,0.1
        c0.7,0,1.3-0.1,1.8-0.3c0.5-0.2,0.9-0.5,1.3-0.8c0.4-0.4,0.7-0.8,1-1.2c0.3-0.5,0.5-0.9,0.7-1.5l6.8-18L190.9,15.6L190.9,15.6z"/>
    <polygon fill="#00313D" points="59.2,27.3 59.2,10.2 55.2,10.2 55.2,31 68.2,31 68.1,27.3 "/>
    <path fill="#EB3C3F" d="M25,6.9v27.4l-10.1,5.8c-0.9,0.5-2.1-0.1-2.1-1.2V2.4c0-1.1,1.2-1.7,2.1-1.2L25,6.9z"/>
    <path fill="#FFCB00" d="M25,6.9v27.4l10.1,5.8c0.9,0.5,2.1-0.1,2.1-1.2V2.4c0-1.1-1.2-1.7-2.1-1.2L25,6.9z"/>
    <path fill="#0071CE" d="M37.2,34.3V6.9h6.1c0.8,0,1.4,0.6,1.4,1.4V33c0,0.8-0.6,1.4-1.4,1.4L37.2,34.3L37.2,34.3z"/>
    <path fill="#CE0E2D" d="M12.8,34.3V6.9H6.8C6,6.9,5.4,7.6,5.4,8.3V33c0,0.8,0.6,1.4,1.4,1.4L12.8,34.3L12.8,34.3z"/>
</svg>
