<svg viewBox="0 0 509.79 334.83" xmlns="http://www.w3.org/2000/svg" xmlns:xlink="http://www.w3.org/1999/xlink"><clipPath id="a"><path d="m383.37 275a52.67 52.67 0 0 0 37.72 3.93c20.3-5.66 29.35-19.3 33-26.36 3.83-7.33 1.39-23 1.39-23l-6.29-31.26s-40 4.08-41.33 4-41.14 17.44-41.14 17.44l-2.52 38.76c9.1 12.38 19.17 16.49 19.17 16.49z"/></clipPath><clipPath id="b"><path d="m211.14 197.03h88.33v55.09h-88.33z"/></clipPath><clipPath id="c"><path d="m229.55 196.84h25.81v55.28h-25.81z"/></clipPath><clipPath id="d"><circle cx="103.45" cy="228.52" r="53.03"/></clipPath><path d="m6.75 137.72h496.25c3.72 0 6.75 3.65 6.75 8.16v148.72c0 22.22-13.64 40.23-30.46 40.23h-448.84c-16.62 0-30.17-17.6-30.45-39.55v-149.4c0-4.51 3-8.16 6.75-8.16z" fill="#00313d"/><path d="m202.81 52.84 2.82 33.74c-25.58 19-83 34.85-111.65 34.85-67.13 0-42.39-36.72-48.49-38.1 2-15.3 49.84-22 55.3-36.45 16.69 11.39 51.21 21.32 102.02 5.96z" fill="#cbdbf2"/><path d="m418.62 144.37c-11.34-2.51-23.65-4.73-36.73-6.65h-253.36c-13.08 1.92-25.38 4.14-36.72 6.65-66.35 14.74-77 33.74-77 46.76s10.67 32 77 46.76c43.72 9.71 101.75 15.05 163.4 15.05s119.69-5.34 163.41-15.05c66.34-14.73 77-33.74 77-46.76s-10.62-32.02-77-46.76zm-8.18 73.12c-42.17 8.76-97.3 13.59-155.23 13.59s-113-4.83-155.23-13.59c-33-6.85-50.48-14.64-58.93-20.29a7.3 7.3 0 0 1 0-12.13c8.45-5.66 25.95-13.44 58.95-20.3 42.18-8.76 97.3-13.58 155.23-13.58s113.04 4.81 155.21 13.58c33 6.86 50.48 14.64 58.93 20.3a7.3 7.3 0 0 1 0 12.13c-8.45 5.65-25.92 13.44-58.93 20.29z" fill="#5691cd"/><path d="m319.93 52.84-2.82 33.74c25.58 19 83 34.85 111.65 34.85 67.13 0 42.4-36.72 48.5-38.1-2-15.3-49.85-22-55.31-36.45-16.69 11.39-51.22 21.32-102.02 5.96z" fill="#cbdbf2"/><path d="m31.85 44.3h90.11v77.56h-90.11z" fill="#5691cd"/><path d="m35.93 54.78h81.95v62.89h-81.95z" fill="#fff"/><path d="m75.1 60.93h34.76v7.01h-34.76z" fill="#cbdbf2"/><path d="m75.1 70.39h34.76v2.92h-34.76z" fill="#cbdbf2"/><path d="m75.1 75.75h34.76v2.92h-34.76z" fill="#cbdbf2"/><path d="m43.89 81.11h65.97v3.07h-65.97z" fill="#cbdbf2"/><path d="m43.89 86.81h65.97v3.07h-65.97z" fill="#cbdbf2"/><path d="m43.89 92.36h28.55v2.92h-28.55z" fill="#cbdbf2"/><path d="m43.89 97.72h28.55v2.92h-28.55z" fill="#cbdbf2"/><path d="m43.89 103.23h28.55v2.92h-28.55z" fill="#cbdbf2"/><path d="m43.89 108.59h65.97v2.92h-65.97z" fill="#cbdbf2"/><path d="m75.1 92.36h34.76v13.79h-34.76z" fill="#cbdbf2"/><path d="m75.1 106.15s3.05-6.89 8.48-5.42c4.33 1.18 5.23 4.29 11.26 1.41s6.39-9 15-6v10z" fill="#5691cd"/><ellipse cx="87.98" cy="96.32" fill="#fff" rx="2.44" ry="2.36"/><path d="m43.94 60.93h28.81v17.74h-28.81z" fill="#cbdbf2"/><ellipse cx="58.34" cy="70.39" fill="#5691cd" rx="4.46" ry="4.48"/><path d="m56.73 67.9v4.98l4.22-2.49z" fill="#fff"/><circle cx="37.96" cy="49.51" fill="#cbdbf2" r="2.03"/><circle cx="43.56" cy="49.51" fill="#00313d" r="2.03"/><circle cx="49.15" cy="49.51" fill="#d54144" r="2.03"/><path d="m391.27 44.3h90.11v77.56h-90.11z" fill="#5691cd"/><path d="m395.35 54.78h81.95v62.89h-81.95z" fill="#fff"/><circle cx="397.38" cy="49.51" fill="#cbdbf2" r="2.03"/><circle cx="402.97" cy="49.51" fill="#00313d" r="2.03"/><circle cx="408.56" cy="49.51" fill="#d54144" r="2.03"/><rect fill="#0073bb" height="26.09" rx="11.45" width="110.57" x="21.62" y="10.5"/><path d="m38.79 23.9v3.73h-1.88v-3.73l-3.26-5.84h2.13l2.08 4 2.08-4h2.13z" fill="#fff"/><path d="m41.36 24.22a3.62 3.62 0 1 1 3.64 3.61 3.57 3.57 0 0 1 -3.64-3.61zm5.46 0a1.85 1.85 0 1 0 -1.82 1.88 1.82 1.82 0 0 0 1.82-1.88z" fill="#fff"/><path d="m56.28 20.8v6.83h-1.76v-.76a2.34 2.34 0 0 1 -2 1 2.56 2.56 0 0 1 -2.62-2.87v-4.2h1.76v4a1.26 1.26 0 0 0 1.34 1.38c.86 0 1.51-.5 1.51-1.69v-3.69z" fill="#fff"/><path d="m61.91 20.66v2a1.71 1.71 0 0 0 -2.08 1.74v3.26h-1.76v-6.86h1.76v1.2a2.11 2.11 0 0 1 2.08-1.34z" fill="#fff"/><path d="m66.35 24.22a3.53 3.53 0 0 1 3.65-3.61 3.44 3.44 0 0 1 3 1.76l-1.52.89a1.69 1.69 0 0 0 -1.48-.92 1.87 1.87 0 0 0 0 3.74 1.7 1.7 0 0 0 1.57-.91l1.53.88a3.6 3.6 0 0 1 -6.7-1.83z" fill="#fff"/><path d="m73.69 24.22a3.62 3.62 0 1 1 3.61 3.61 3.57 3.57 0 0 1 -3.61-3.61zm5.47 0a1.86 1.86 0 1 0 -1.86 1.88 1.82 1.82 0 0 0 1.86-1.88z" fill="#fff"/><path d="m88.72 23.44v4.19h-1.72v-4a1.27 1.27 0 0 0 -1.35-1.41c-.87 0-1.51.5-1.51 1.69v3.69h-1.8v-6.8h1.76v.76a2.33 2.33 0 0 1 2-.95 2.55 2.55 0 0 1 2.62 2.83z" fill="#fff"/><path d="m92.77 22.49v2.85c0 .74.53.75 1.54.69v1.6c-2.47.28-3.31-.45-3.31-2.29v-2.85h-1.19v-1.69h1.19v-1.38l1.77-.54v1.92h1.54v1.69z" fill="#fff"/><path d="m98.94 26.23a1.88 1.88 0 0 0 1.53-.69l1.43.82a3.47 3.47 0 0 1 -3 1.47 3.52 3.52 0 0 1 -3.75-3.61 3.54 3.54 0 1 1 7.07 0 4.09 4.09 0 0 1 -.07.72h-5.15a1.79 1.79 0 0 0 1.94 1.29zm1.53-2.66a1.65 1.65 0 0 0 -1.69-1.38 1.71 1.71 0 0 0 -1.78 1.38z" fill="#fff"/><path d="m110 23.44v4.19h-1.77v-4a1.27 1.27 0 0 0 -1.35-1.41c-.86 0-1.5.5-1.5 1.69v3.69h-1.77v-6.8h1.77v.76a2.33 2.33 0 0 1 2-.95 2.56 2.56 0 0 1 2.62 2.83z" fill="#fff"/><path d="m114.07 22.49v2.85c0 .74.53.75 1.55.69v1.6c-2.48.28-3.31-.45-3.31-2.29v-2.85h-1.19v-1.69h1.19v-1.38l1.76-.54v1.92h1.55v1.69z" fill="#fff"/><rect fill="#0073bb" height="26.09" rx="11.45" width="110.57" x="379.6" y="10.71"/><path d="m394.18 24.1v3.74h-1.87v-3.74l-3.31-5.83h2.14l2.07 4 2.08-4h2.13z" fill="#fff"/><path d="m396.75 24.42a3.62 3.62 0 1 1 3.61 3.58 3.57 3.57 0 0 1 -3.61-3.58zm5.47 0a1.86 1.86 0 1 0 -1.86 1.89 1.82 1.82 0 0 0 1.86-1.89z" fill="#fff"/><path d="m411.68 21v6.84h-1.77v-.77a2.31 2.31 0 0 1 -2 1 2.56 2.56 0 0 1 -2.59-2.83v-4.24h1.77v4a1.27 1.27 0 0 0 1.35 1.41c.86 0 1.5-.51 1.5-1.7v-3.71z" fill="#fff"/><path d="m417.31 20.86v2a1.71 1.71 0 0 0 -2.08 1.74v3.27h-1.77v-6.87h1.77v1.18a2.1 2.1 0 0 1 2.08-1.32z" fill="#fff"/><path d="m429.41 24.42a3.46 3.46 0 0 1 -3.33 3.58 2.67 2.67 0 0 1 -2.22-1v.81h-1.76v-9.54h1.76v3.54a2.67 2.67 0 0 1 2.22-1 3.46 3.46 0 0 1 3.33 3.61zm-1.76 0a1.9 1.9 0 1 0 -1.9 1.93 1.84 1.84 0 0 0 1.9-1.93z" fill="#fff"/><path d="m434.67 20.86v2a1.7 1.7 0 0 0 -2.07 1.74v3.27h-1.77v-6.87h1.77v1.18a2.1 2.1 0 0 1 2.07-1.32z" fill="#fff"/><path d="m442.57 21v6.84h-1.76v-.84a2.71 2.71 0 0 1 -2.23 1 3.45 3.45 0 0 1 -3.32-3.61 3.45 3.45 0 0 1 3.32-3.61 2.71 2.71 0 0 1 2.23 1v-.78zm-1.76 3.42a1.9 1.9 0 1 0 -1.9 1.93 1.84 1.84 0 0 0 1.9-1.93z" fill="#fff"/><path d="m450.73 23.64v4.2h-1.73v-4a1.27 1.27 0 0 0 -1.35-1.41c-.87 0-1.51.51-1.51 1.7v3.69h-1.76v-6.82h1.76v.77a2.32 2.32 0 0 1 2-1 2.55 2.55 0 0 1 2.59 2.87z" fill="#fff"/><path d="m459.36 18.27v9.57h-1.77v-.84a2.65 2.65 0 0 1 -2.21 1 3.46 3.46 0 0 1 -3.38-3.58 3.46 3.46 0 0 1 3.34-3.61 2.65 2.65 0 0 1 2.21 1v-3.54zm-1.77 6.15a1.9 1.9 0 1 0 -1.88 1.93 1.83 1.83 0 0 0 1.88-1.93z" fill="#fff"/><path d="m460.94 19.1a1.09 1.09 0 1 1 1.06 1.08 1.1 1.1 0 0 1 -1.06-1.08zm.2 1.9h1.77v6.84h-1.77z" fill="#fff"/><path d="m471.08 23.64v4.2h-1.76v-4a1.28 1.28 0 0 0 -1.32-1.39c-.86 0-1.5.51-1.5 1.7v3.69h-1.8v-6.84h1.76v.77a2.32 2.32 0 0 1 2-1 2.55 2.55 0 0 1 2.62 2.87z" fill="#fff"/><path d="m479.72 21v6.51c0 2.24-1.77 3.25-3.57 3.25a3.46 3.46 0 0 1 -3.24-1.67l1.5-.86a1.77 1.77 0 0 0 1.79 1 1.59 1.59 0 0 0 1.8-1.72v-.74a2.59 2.59 0 0 1 -2.18 1 3.5 3.5 0 0 1 0-7 2.59 2.59 0 0 1 2.18 1v-.77zm-1.72 3.31a1.91 1.91 0 1 0 -1.91 1.87 1.82 1.82 0 0 0 1.91-1.87z" fill="#fff"/><circle cx="407.35" cy="227.81" fill="#cbdbf2" r="52.92"/><g clip-path="url(#a)"><path d="m370.95 242.07h15.08v44.56h-15.08z" fill="#e69487"/><path d="m390.66 232.72h15.08v53.92h-15.08z" fill="#df7369"/><path d="m409.86 219.93h15.08v66.7h-15.08z" fill="#d3373d"/><path d="m429.05 206.05h15.08v80.58h-15.08z" fill="#ce132e"/></g><g fill="#fff"><path d="m372.28 306.47v1.53h-4.62v-8h1.57v6.49z"/><path d="m375.69 306.8a1.6 1.6 0 0 0 1.28-.57l1.18.69a2.89 2.89 0 0 1 -2.49 1.22 3 3 0 1 1 -.11-6 2.88 2.88 0 0 1 2.89 3 3 3 0 0 1 -.06.61h-4.3a1.49 1.49 0 0 0 1.61 1.05zm1.28-2.22a1.39 1.39 0 0 0 -1.42-1.15 1.42 1.42 0 0 0 -1.5 1.15z"/><path d="m385.06 302.27v5.73h-1.47v-.68a2.26 2.26 0 0 1 -1.86.84 3 3 0 0 1 0-6 2.28 2.28 0 0 1 1.86.83v-.67zm-1.47 2.85a1.58 1.58 0 1 0 -1.59 1.61 1.53 1.53 0 0 0 1.59-1.61z"/><path d="m389.45 302.15v1.65a1.43 1.43 0 0 0 -1.74 1.45v2.75h-1.47v-5.71h1.47v1a1.76 1.76 0 0 1 1.74-1.14z"/><path d="m395.48 304.47v3.53h-1.48v-3.33a1.06 1.06 0 0 0 -1.13-1.17c-.72 0-1.26.42-1.26 1.41v3.09h-1.47v-5.71h1.47v.64a1.93 1.93 0 0 1 1.7-.8 2.13 2.13 0 0 1 2.17 2.34z"/><path d="m396.27 305.12a3 3 0 1 1 3 3 3 3 0 0 1 -3-3zm4.57 0a1.55 1.55 0 1 0 -1.56 1.58 1.52 1.52 0 0 0 1.56-1.58z"/><path d="m407.36 306.31c0 1.23-1.07 1.83-2.3 1.83a2.44 2.44 0 0 1 -2.39-1.36l1.27-.72a1.09 1.09 0 0 0 1.12.74c.47 0 .79-.16.79-.49 0-.83-2.94-.38-2.94-2.39a1.92 1.92 0 0 1 2.17-1.81 2.41 2.41 0 0 1 2.17 1.21l-1.25.68a1 1 0 0 0 -.91-.58c-.37 0-.67.16-.67.47-.01.84 2.94.32 2.94 2.42z"/><path d="m408 300.68a.91.91 0 1 1 1.81 0 .91.91 0 0 1 -1.81 0zm.17 1.59h1.47v5.73h-1.47z"/><path d="m412.77 303.68v2.38c0 .62.45.63 1.3.58v1.36c-2.07.23-2.77-.38-2.77-1.92v-2.38h-1v-1.41h1v-1.16l1.47-.44v1.6h1.3v1.41z"/><path d="m420.36 302.27-2.08 5.73c-.59 1.64-1.56 2.36-3 2.28v-1.37a1.39 1.39 0 0 0 1.5-1.1l-2.34-5.52h1.56l1.48 3.83 1.27-3.83z"/><path d="m428.31 306.54h-3.19l-.48 1.44h-1.7l2.8-8h1.95l2.81 8h-1.71zm-.49-1.48-1.1-3.26-1.1 3.26z"/><path d="m436.37 304.47v3.53h-1.47v-3.33a1.06 1.06 0 0 0 -1.13-1.17c-.72 0-1.26.42-1.26 1.41v3.09h-1.51v-5.71h1.47v.64a1.93 1.93 0 0 1 1.7-.8 2.13 2.13 0 0 1 2.2 2.34z"/><path d="m443.28 302.27v5.73h-1.47v-.68a2.26 2.26 0 0 1 -1.86.84 3 3 0 0 1 0-6 2.28 2.28 0 0 1 1.86.83v-.67zm-1.47 2.85a1.58 1.58 0 1 0 -1.59 1.61 1.53 1.53 0 0 0 1.59-1.61z"/><path d="m444.46 299.64h1.47v8.36h-1.47z"/><path d="m452.41 302.27-2.08 5.73c-.59 1.64-1.56 2.36-3 2.28v-1.37a1.38 1.38 0 0 0 1.49-1.1l-2.34-5.52h1.61l1.49 3.83 1.26-3.83z"/><path d="m454.92 303.68v2.38c0 .62.45.63 1.29.58v1.36c-2.06.23-2.76-.38-2.76-1.92v-2.38h-1v-1.41h1v-1.16l1.47-.44v1.6h1.29v1.41z"/><path d="m456.91 300.68a.91.91 0 1 1 1.82 0 .91.91 0 0 1 -1.82 0zm.17 1.59h1.48v5.73h-1.48z"/><path d="m459.45 305.12a3 3 0 0 1 3-3 2.87 2.87 0 0 1 2.56 1.47l-1.27.74a1.41 1.41 0 0 0 -1.3-.76 1.56 1.56 0 0 0 0 3.12 1.4 1.4 0 0 0 1.31-.76l1.28.73a3 3 0 0 1 -5.59-1.53z"/><path d="m469.94 306.31c0 1.23-1.07 1.83-2.29 1.83a2.46 2.46 0 0 1 -2.4-1.36l1.28-.72a1.09 1.09 0 0 0 1.12.74c.47 0 .79-.16.79-.49 0-.83-2.95-.38-2.95-2.39a1.92 1.92 0 0 1 2.17-1.81 2.41 2.41 0 0 1 2.17 1.21l-1.26.68a1 1 0 0 0 -.91-.58c-.37 0-.66.16-.66.47 0 .84 2.94.32 2.94 2.42z"/></g><path d="m344.79 298.62s-.11-1.39.7-1.68a2.21 2.21 0 0 1 2.15.44l9.31 5.38s1.07.43 1.1 1.31 0 1.61 0 1.61a1.76 1.76 0 0 1 -1 1.44c-1 .54-10.25 5.78-10.25 5.78a1.49 1.49 0 0 1 -1.71-.2l-.06-.08a1.38 1.38 0 0 1 -.28-1c0-.47 0-13 0-13" fill="#ce132e"/><path d="m361.83 311.26s0 1.3-.71 1.68c-.92.48-1.51-.07-2.15-.43l-9.3-5.38s-1.08-.44-1.11-1.31 0-1.61 0-1.61a1.77 1.77 0 0 1 1-1.45c1-.53 10.24-5.77 10.24-5.77a1.42 1.42 0 0 1 1.75.23 1.85 1.85 0 0 1 .3 1v13" fill="#e83c40"/><circle cx="255.39" cy="227.37" fill="#cbdbf2" r="52.92"/><path d="m205.81 257.32.29-62.85a3.11 3.11 0 0 1 2.94-2.83h92.8s2.6.51 2.6 2.44v63.24z" fill="#00313d"/><path d="m194.66 257.32h121.27v2.38h-121.27z" fill="#5691cd"/><path d="m194.66 259.7s3.09 1.61 5 1.61h112c1.27 0 4.22-1.61 4.22-1.61z" fill="#cbdbf2"/><path d="m209.66 195.38h91.27v58.01h-91.27z" fill="#cbdbf2"/><path d="m211.14 197.03h88.33v55.09h-88.33z" fill="#fff"/><g clip-path="url(#b)"><path d="m263.57 246.93-5.74-13.82 1.53-6 8.38.31 1.82 5.58z" fill="#cbdbf2"/><path d="m266.86 229.85-3.38 3.14-2.58-3.54-.49-69.83 6.82.05z" fill="#00313d"/><g fill="#0073bb"><path d="m257.83 233.11-.29-73.52 2.87.03.49 69.83z"/><path d="m269.56 233 1.01-72.97-3.34-.36-.51 70.27z"/><path d="m263.57 246.93 1.69-3.92-3.37-.14z"/></g></g><g clip-path="url(#c)"><path d="m235.24 193.92h16.92v62.79h-16.92z" fill="#ce132e"/><g fill="#fff"><path d="m245.94 200.47h6.21v1.36h-6.21z"/><path d="m249.05 198.67h3.11v.68h-3.11z"/><path d="m249.05 196.87h3.11v.68h-3.11z"/><path d="m249.05 195.07h3.11v.68h-3.11z"/><path d="m249.05 206.56h3.11v.68h-3.11z"/><path d="m249.05 204.75h3.11v.68h-3.11z"/><path d="m249.05 210.16h3.11v.68h-3.11z"/><path d="m249.05 208.36h3.11v.68h-3.11z"/><path d="m249.05 202.95h3.11v.68h-3.11z"/><path d="m245.94 211.96h6.21v1.36h-6.21z"/><path d="m249.05 218.04h3.11v.68h-3.11z"/><path d="m249.05 216.24h3.11v.68h-3.11z"/><path d="m249.05 221.64h3.11v.68h-3.11z"/><path d="m249.05 219.84h3.11v.68h-3.11z"/><path d="m249.05 214.44h3.11v.68h-3.11z"/><path d="m245.94 223.44h6.21v1.36h-6.21z"/><path d="m249.05 229.53h3.11v.68h-3.11z"/><path d="m249.05 227.72h3.11v.68h-3.11z"/><path d="m249.05 233.13h3.11v.68h-3.11z"/><path d="m249.05 231.33h3.11v.68h-3.11z"/><path d="m249.05 225.92h3.11v.68h-3.11z"/><path d="m245.94 234.98h6.21v1.36h-6.21z"/><path d="m249.05 241.06h3.11v.68h-3.11z"/><path d="m249.05 239.26h3.11v.68h-3.11z"/><path d="m249.05 244.66h3.11v.68h-3.11z"/><path d="m249.05 242.86h3.11v.68h-3.11z"/><path d="m249.05 237.46h3.11v.68h-3.11z"/><path d="m245.94 246.46h6.21v1.36h-6.21z"/><path d="m249.05 252.55h3.11v.68h-3.11z"/><path d="m249.05 250.75h3.11v.68h-3.11z"/><path d="m249.05 256.15h3.11v.68h-3.11z"/><path d="m249.05 254.35h3.11v.68h-3.11z"/><path d="m249.05 248.94h3.11v.68h-3.11z"/></g></g><g fill="#fff"><path d="m214 305.72v1.51h-4.65v-8h1.65v6.52z"/><path d="m217.44 306.05a1.59 1.59 0 0 0 1.28-.57l1.2.69a2.9 2.9 0 0 1 -2.51 1.22 3 3 0 1 1 -.11-6.06 2.9 2.9 0 0 1 2.9 3 3.86 3.86 0 0 1 0 .61h-4.33a1.51 1.51 0 0 0 1.57 1.11zm1.28-2.23a1.38 1.38 0 0 0 -1.42-1.15 1.42 1.42 0 0 0 -1.5 1.15z"/><path d="m226.86 301.49v5.74h-1.48v-.67a2.29 2.29 0 0 1 -1.87.83 3 3 0 0 1 0-6.06 2.3 2.3 0 0 1 1.87.84v-.68zm-1.48 2.87a1.59 1.59 0 1 0 -1.6 1.62 1.54 1.54 0 0 0 1.6-1.62z"/><path d="m231.27 301.38v1.62a1.44 1.44 0 0 0 -1.75 1.46v2.74h-1.52v-5.74h1.48v1a1.77 1.77 0 0 1 1.79-1.08z"/><path d="m237.32 303.71v3.52h-1.48v-3.34a1.06 1.06 0 0 0 -1.13-1.18c-.73 0-1.26.43-1.26 1.42v3.1h-1.45v-5.74h1.49v.65a1.94 1.94 0 0 1 1.71-.81 2.14 2.14 0 0 1 2.12 2.38z"/><path d="m238.12 304.36a3 3 0 1 1 3 3 3 3 0 0 1 -3-3zm4.59 0a1.56 1.56 0 1 0 -1.56 1.59 1.52 1.52 0 0 0 1.56-1.59z"/><path d="m249.26 305.56c0 1.24-1.08 1.83-2.31 1.83a2.46 2.46 0 0 1 -2.41-1.36l1.29-.72a1.09 1.09 0 0 0 1.12.74c.47 0 .79-.16.79-.49 0-.84-3-.38-3-2.4a1.94 1.94 0 0 1 2.18-1.83 2.41 2.41 0 0 1 2.18 1.22l-1.26.69a1 1 0 0 0 -.92-.59c-.36 0-.66.16-.66.47.04.88 3 .33 3 2.44z"/><path d="m249.87 299.9a.91.91 0 1 1 .9.91.93.93 0 0 1 -.9-.91zm.17 1.59h1.48v5.74h-1.52z"/><path d="m254.7 302.92v2.39c0 .61.45.63 1.29.58v1.34c-2.07.23-2.77-.38-2.77-1.92v-2.39h-1v-1.43h1v-1.15l1.48-.45v1.6h1.3v1.43z"/><path d="m262.32 301.49-2.09 5.74c-.6 1.66-1.57 2.38-3 2.3v-1.38a1.39 1.39 0 0 0 1.5-1.1l-2.35-5.56h1.62l1.49 3.86 1.27-3.86z"/><path d="m270.3 305.79h-3.2l-.48 1.44h-1.71l2.81-8h2l2.83 8h-1.72zm-.49-1.48-1.1-3.29-1.1 3.29z"/><path d="m277.32 305.56c0 1.24-1.08 1.83-2.31 1.83a2.46 2.46 0 0 1 -2.41-1.39l1.28-.72a1.11 1.11 0 0 0 1.13.74c.47 0 .79-.16.79-.49 0-.84-3-.38-3-2.4a1.94 1.94 0 0 1 2.18-1.83 2.42 2.42 0 0 1 2.18 1.22l-1.26.69a1 1 0 0 0 -.92-.59c-.37 0-.67.16-.67.47.04.91 3.01.36 3.01 2.47z"/><path d="m282.14 305.56c0 1.24-1.08 1.83-2.31 1.83a2.46 2.46 0 0 1 -2.41-1.36l1.28-.72a1.09 1.09 0 0 0 1.13.74c.47 0 .79-.16.79-.49 0-.84-3-.38-3-2.4a1.94 1.94 0 0 1 2.18-1.83 2.42 2.42 0 0 1 2.18 1.22l-1.26.69a1 1 0 0 0 -.92-.59c-.37 0-.67.16-.67.47.04.88 3.01.33 3.01 2.44z"/><path d="m285.7 306.05a1.59 1.59 0 0 0 1.29-.57l1.19.69a2.9 2.9 0 0 1 -2.5 1.22 3 3 0 1 1 -.11-6.06 2.9 2.9 0 0 1 2.9 3 2.93 2.93 0 0 1 -.06.61h-4.32a1.49 1.49 0 0 0 1.61 1.11zm1.29-2.23a1.38 1.38 0 0 0 -1.42-1.15 1.43 1.43 0 0 0 -1.51 1.15z"/><path d="m293.44 305.56c0 1.24-1.08 1.83-2.31 1.83a2.47 2.47 0 0 1 -2.41-1.36l1.29-.72a1.09 1.09 0 0 0 1.12.74c.47 0 .79-.16.79-.49 0-.84-3-.38-3-2.4a1.94 1.94 0 0 1 2.18-1.83 2.41 2.41 0 0 1 2.18 1.22l-1.26.69a1 1 0 0 0 -.92-.59c-.36 0-.66.16-.66.47.04.88 3 .33 3 2.44z"/><path d="m298.26 305.56c0 1.24-1.08 1.83-2.31 1.83a2.46 2.46 0 0 1 -2.41-1.36l1.29-.72a1.09 1.09 0 0 0 1.12.74c.47 0 .79-.16.79-.49 0-.84-3-.38-3-2.4a1.94 1.94 0 0 1 2.18-1.83 2.41 2.41 0 0 1 2.18 1.22l-1.26.69a1 1 0 0 0 -.92-.59c-.36 0-.66.16-.66.47.04.88 3 .33 3 2.44z"/><path d="m307.61 303.7v3.53h-1.48v-3.43c0-.68-.34-1.09-1-1.09s-1.07.44-1.07 1.3v3.22h-1.48v-3.43c0-.68-.35-1.09-1-1.09s-1.07.44-1.07 1.3v3.22h-1.41v-5.74h1.48v.61a1.81 1.81 0 0 1 1.59-.77 1.72 1.72 0 0 1 1.56.83 2 2 0 0 1 1.71-.83 2.14 2.14 0 0 1 2.17 2.37z"/><path d="m311.58 306.05a1.62 1.62 0 0 0 1.29-.57l1.19.69a2.9 2.9 0 0 1 -2.5 1.22 3 3 0 1 1 -.12-6.06 2.91 2.91 0 0 1 2.91 3 3.82 3.82 0 0 1 -.06.61h-4.29a1.51 1.51 0 0 0 1.58 1.11zm1.29-2.23a1.4 1.4 0 0 0 -1.43-1.15 1.42 1.42 0 0 0 -1.5 1.15z"/><path d="m320.58 303.71v3.52h-1.48v-3.34a1.07 1.07 0 0 0 -1.14-1.18c-.72 0-1.26.43-1.26 1.42v3.1h-1.48v-5.74h1.48v.65a1.94 1.94 0 0 1 1.71-.81 2.15 2.15 0 0 1 2.17 2.38z"/><path d="m323.66 302.92v2.39c0 .61.45.63 1.3.58v1.34c-2.08.23-2.78-.38-2.78-1.92v-2.39h-1v-1.43h1v-1.15l1.48-.45v1.6h1.34v1.43z"/><path d="m330 305.56c0 1.24-1.08 1.83-2.3 1.83a2.46 2.46 0 0 1 -2.41-1.36l1.28-.72a1.09 1.09 0 0 0 1.13.74c.47 0 .79-.16.79-.49 0-.84-3-.38-3-2.4a1.94 1.94 0 0 1 2.18-1.83 2.42 2.42 0 0 1 2.18 1.22l-1.26.69a1 1 0 0 0 -.92-.59c-.37 0-.67.16-.67.47.07.88 3 .33 3 2.44z"/></g><path d="m190.62 301.68c.18-.37.35-.75.55-1.09.9-1.62 1.82-3.22 2.72-4.84a1.17 1.17 0 0 1 2.14 0c2.44 4.32 4.88 8.66 7.34 13a1 1 0 0 1 -.92 1.55c-2.08 0-4.17 0-6.26 0a1.06 1.06 0 0 1 -1.06-.63c-.52-1-4.56-8-4.51-7.95" fill="#e83c40"/><path d="m193.52 306.78c-.16.36-.28.69-.45 1-.93 1.66-1.88 3.31-2.8 5a1.21 1.21 0 0 1 -1.08.73 1.22 1.22 0 0 1 -1.12-.73q-3.65-6.48-7.32-12.94a1 1 0 0 1 .95-1.61c2.05.06 4.11 0 6.17 0a1.17 1.17 0 0 1 1.17.67c.44.85.93 1.67 1.41 2.51.06.11 3.61 6.36 3.07 5.4" fill="#ce132e"/><path d="m418.68 74.6a3.33 3.33 0 0 1 -3.55 3.29h-4.83v-11.38h4.49a3.26 3.26 0 0 1 3.46 3.21 2.85 2.85 0 0 1 -1.06 2.28 2.87 2.87 0 0 1 1.49 2.6zm-6.12-6v2.51h2.24a1.25 1.25 0 0 0 0-2.5zm3.89 5.85a1.29 1.29 0 0 0 -1.31-1.34h-2.59v2.68h2.58a1.29 1.29 0 0 0 1.32-1.34z" fill="#00313d"/><path d="m424.29 74h-1.71v4h-2.24v-11.38h4.55a3.78 3.78 0 0 1 3.78 3.78 3.7 3.7 0 0 1 -2.2 3.31l2.51 4.3h-2.42zm-1.71-2h2.31a1.69 1.69 0 0 0 0-3.36h-2.31z" fill="#00313d"/><path d="m437.14 75.89h-4.54l-.68 2.05h-2.43l4-11.37h2.78l4 11.39h-2.44zm-.7-2.1-1.55-4.65-1.57 4.64z" fill="#00313d"/><path d="m450.4 66.58v11.38h-1.7l-4.87-7v7h-2.25v-11.39h1.7l4.87 7v-6.99z" fill="#00313d"/><path d="m462.7 72.3a5.49 5.49 0 0 1 -5.49 5.7h-4.52v-11.38h4.52a5.48 5.48 0 0 1 5.49 5.68zm-2.15 0a3.28 3.28 0 0 0 -3.32-3.55h-2.23v7.08h2.27a3.28 3.28 0 0 0 3.28-3.54z" fill="#00313d"/><path d="m407.22 74.26s.07-6.7 0-9a1.61 1.61 0 0 1 1.68-1.74h20.1" fill="none" stroke="#00313d" stroke-linecap="round" stroke-linejoin="round"/><path d="m465.74 70.6s-.07 6.71 0 9.05a1.62 1.62 0 0 1 -1.68 1.74h-41.48" fill="none" stroke="#00313d" stroke-linecap="round" stroke-linejoin="round"/><path d="m403.54 87.33-.01 6.36 65.63.04v-6.41z" fill="#00313d"/><path d="m445.68 96.81h23.69a2 2 0 0 0 2-2v-4.19h-70.08v4.16a2 2 0 0 0 2 2h26.44.05a2 2 0 0 1 1.9 1.55 5.41 5.41 0 0 1 -.25 4.29 1.07 1.07 0 0 1 -.93.63c-2.06.17-2.67 2.17-2.62 3.79.05 1.79 0 3.2 0 3.2s.11 2.11 2.83 2.42h14.06c2.71-.31 2.82-2.42 2.82-2.42s-.06-1.41 0-3.2c0-1.62-.57-3.62-2.63-3.79a1.05 1.05 0 0 1 -.92-.63 5.37 5.37 0 0 1 -.26-4.27 2 2 0 0 1 1.9-1.55z" fill="#ce132e"/><path d="m155.17 133 .57-127.24s.58-5.61 6-5.73 187.87 0 187.87 0 5.28 1 5.28 4.93v128.04z" fill="#00313d"/><path d="m132.59 133.02h245.53v4.81h-245.53z" fill="#5691cd"/><path d="m132.59 137.83s6.25 3.27 10.2 3.27h226.79c2.57 0 8.54-3.27 8.54-3.27z" fill="#00313d"/><path d="m162.97 7.62h184.77v117.45h-184.77z" fill="#cbdbf2"/><path d="m165.96 10.95h178.83v111.54h-178.83z" fill="#fff"/><path d="m165.96 10.54h178.83v6.19h-178.83z" fill="#5691cd"/><path d="m183.06 44.72h53.8v68.79h-53.8z" fill="#5691cd"/><path d="m251.87 44.72h76.32v8.76h-76.32z" fill="#cbdbf2"/><path d="m251.87 56.53h76.32v3.65h-76.32z" fill="#cbdbf2"/><path d="m251.87 63.23h76.32v3.65h-76.32z" fill="#cbdbf2"/><path d="m251.87 69.93h76.32v8.76h-76.32z" fill="#cbdbf2"/><path d="m251.87 97.88h32.47v15.63h-32.47z" fill="#cbdbf2"/><path d="m295.72 97.88h32.47v15.63h-32.47z" fill="#cbdbf2"/><path d="m251.87 81.74h76.32v3.65h-76.32z" fill="#cbdbf2"/><path d="m251.87 88.44h76.32v3.65h-76.32z" fill="#cbdbf2"/><circle cx="169.96" cy="13.8" fill="#cbdbf2" r="1.71"/><circle cx="175.45" cy="13.8" fill="#00313d" r="1.71"/><circle cx="180.94" cy="13.8" fill="#d54144" r="1.71"/><circle cx="255.35" cy="3.49" fill="#fff" r="1.06"/><path d="m219.43 32.07v3.73h-1.87v-3.73l-3.27-5.84h2.14l2.07 4 2.08-4h2.13z" fill="#00313d"/><path d="m222 32.39a3.62 3.62 0 1 1 3.61 3.61 3.57 3.57 0 0 1 -3.61-3.61zm5.47 0a1.86 1.86 0 1 0 -1.86 1.88 1.82 1.82 0 0 0 1.86-1.88z" fill="#00313d"/><path d="m236.93 29v6.8h-1.77v-.8a2.33 2.33 0 0 1 -2 1 2.56 2.56 0 0 1 -2.59-2.83v-4.17h1.77v4a1.26 1.26 0 0 0 1.35 1.4c.86 0 1.5-.5 1.5-1.69v-3.71z" fill="#00313d"/><path d="m242.56 28.83v2a1.71 1.71 0 0 0 -2.08 1.74v3.23h-1.77v-6.8h1.77v1.17a2.09 2.09 0 0 1 2.08-1.34z" fill="#00313d"/><path d="m254.66 32.39a3.46 3.46 0 0 1 -3.33 3.61 2.67 2.67 0 0 1 -2.22-1v3.54h-1.76v-9.54h1.76v.8a2.69 2.69 0 0 1 2.22-1 3.46 3.46 0 0 1 3.33 3.59zm-1.76 0a1.9 1.9 0 1 0 -1.9 1.92 1.84 1.84 0 0 0 1.9-1.92z" fill="#00313d"/><path d="m259.92 28.83v2a1.7 1.7 0 0 0 -2.07 1.74v3.23h-1.77v-6.8h1.77v1.17a2.09 2.09 0 0 1 2.07-1.34z" fill="#00313d"/><path d="m260.51 32.39a3.62 3.62 0 1 1 3.61 3.61 3.57 3.57 0 0 1 -3.61-3.61zm5.47 0a1.86 1.86 0 1 0 -1.86 1.88 1.82 1.82 0 0 0 1.88-1.88z" fill="#00313d"/><path d="m276.11 26.23v9.57h-1.77v-.8a2.65 2.65 0 0 1 -2.21 1 3.62 3.62 0 0 1 0-7.22 2.67 2.67 0 0 1 2.21 1v-3.55zm-1.77 6.16a1.9 1.9 0 1 0 -1.88 1.92 1.83 1.83 0 0 0 1.88-1.92z" fill="#00313d"/><path d="m284.17 29v6.8h-1.77v-.8a2.33 2.33 0 0 1 -2 1 2.56 2.56 0 0 1 -2.59-2.83v-4.17h1.77v4a1.26 1.26 0 0 0 1.35 1.4c.86 0 1.5-.5 1.5-1.69v-3.71z" fill="#00313d"/><path d="m285.6 32.39a3.53 3.53 0 0 1 3.61-3.61 3.44 3.44 0 0 1 3.06 1.76l-1.52.89a1.69 1.69 0 0 0 -1.55-.92 1.87 1.87 0 0 0 0 3.74 1.7 1.7 0 0 0 1.57-.91l1.53.88a3.6 3.6 0 0 1 -6.7-1.83z" fill="#00313d"/><path d="m295.77 30.66v2.85c0 .74.53.75 1.54.69v1.6c-2.47.28-3.31-.45-3.31-2.29v-2.85h-1.18v-1.66h1.18v-1.41l1.77-.54v1.95h1.54v1.69z" fill="#00313d"/><circle cx="103.56" cy="227.81" fill="#cbdbf2" r="52.92"/><g clip-path="url(#d)"><path d="m64.27 191.33c9.64 10.31 19.91 19.11 29.45 23.67 15.61 7.45 30.1-4.93 25.58-18.85-9.73-29.89-56.41 8.69-45.69 42.95 2.41 7.7 5.87 13.09 10.14 16.65" fill="none" stroke="#fff" stroke-linecap="round" stroke-miterlimit="10" stroke-width="3"/><path d="m82.47 255.56 27.66-24.44 15.23-1.23 5.98 19.79-11.57 8.74z" fill="#fff"/><path d="m124.94 249.57-10.02-5.37 6.21-8.84 162.62-56.97 5.31 15.96z" fill="#00313d"/><g fill="#0073bb"><path d="m110.13 231.12 171.37-59.44 2.25 6.71-162.62 56.97z"/><path d="m119.77 258.42 171.13-56-1.84-8.07-164.42 54.97z"/><path d="m82.47 255.56 10.5.8-2.38-7.98z"/></g></g><path d="m73.56 306.24v1.53h-4.69v-8.11h1.6v6.58z" fill="#fff"/><path d="m77 306.57a1.63 1.63 0 0 0 1.3-.57l1.2.69a2.91 2.91 0 0 1 -2.5 1.24 3.06 3.06 0 1 1 -.12-6.11 2.92 2.92 0 0 1 2.93 3.05 3.11 3.11 0 0 1 -.06.62h-4.37a1.51 1.51 0 0 0 1.62 1.08zm1.3-2.24a1.4 1.4 0 0 0 -1.44-1.17 1.45 1.45 0 0 0 -1.52 1.17z" fill="#fff"/><path d="m86.52 302v5.79h-1.52v-.69a2.3 2.3 0 0 1 -1.89.85 3.07 3.07 0 0 1 0-6.11 2.29 2.29 0 0 1 1.89.84v-.68zm-1.52 2.87a1.61 1.61 0 1 0 -1.61 1.63 1.55 1.55 0 0 0 1.61-1.63z" fill="#fff"/><path d="m91 301.86v1.67a1.45 1.45 0 0 0 -1.8 1.47v2.77h-1.49v-5.77h1.49v1a1.79 1.79 0 0 1 1.8-1.14z" fill="#fff"/><path d="m97.07 304.21v3.56h-1.49v-3.37a1.08 1.08 0 0 0 -1.15-1.2c-.73 0-1.27.43-1.27 1.44v3.13h-1.49v-5.77h1.49v.65a2 2 0 0 1 1.73-.81 2.16 2.16 0 0 1 2.18 2.37z" fill="#fff"/><path d="m97.87 304.87a3.07 3.07 0 1 1 3.06 3.06 3 3 0 0 1 -3.06-3.06zm4.63 0a1.57 1.57 0 1 0 -1.57 1.6 1.54 1.54 0 0 0 1.57-1.6z" fill="#fff"/><path d="m109.12 306.08c0 1.25-1.09 1.85-2.33 1.85a2.48 2.48 0 0 1 -2.43-1.38l1.29-.73a1.11 1.11 0 0 0 1.14.75c.47 0 .8-.16.8-.49 0-.85-3-.39-3-2.42a2 2 0 0 1 2.2-1.84 2.43 2.43 0 0 1 2.21 1.18l-1.27.7a1 1 0 0 0 -.93-.59c-.37 0-.67.16-.67.47 0 .9 2.99.42 2.99 2.5z" fill="#fff"/><path d="m109.73 300.37a.92.92 0 1 1 1.84 0 .92.92 0 0 1 -1.84 0zm.17 1.61h1.5v5.79h-1.5z" fill="#fff"/><path d="m114.6 303.41v2.41c0 .63.45.64 1.31.59v1.36c-2.09.23-2.8-.39-2.8-1.95v-2.41h-1v-1.41h1v-1.17l1.49-.45v1.62h1.31v1.43z" fill="#fff"/><path d="m122.29 302-2.11 5.79c-.6 1.66-1.58 2.39-3.05 2.31v-1.39a1.4 1.4 0 0 0 1.51-1.11l-2.37-5.6h1.63l1.51 3.89 1.28-3.89z" fill="#fff"/><path d="m130.35 306.31h-3.23l-.49 1.46h-1.72l2.83-8.11h2l2.85 8.11h-1.74zm-.5-1.5-1.11-3.31-1.11 3.31z" fill="#fff"/><path d="m138.37 302v5.79h-1.49v-.65a2 2 0 0 1 -1.73.81 2.17 2.17 0 0 1 -2.19-2.4v-3.55h1.5v3.37a1.08 1.08 0 0 0 1.14 1.19c.73 0 1.28-.43 1.28-1.44v-3.12z" fill="#fff"/><path d="m141.58 303.41v2.41c0 .63.45.64 1.31.59v1.36c-2.1.23-2.81-.39-2.81-1.95v-2.41h-1v-1.41h1v-1.17l1.5-.45v1.62h1.31v1.43z" fill="#fff"/><path d="m149.18 304.21v3.56h-1.49v-3.37a1.08 1.08 0 0 0 -1.14-1.2c-.73 0-1.28.43-1.28 1.44v3.13h-1.49v-8.11h1.49v3a2 2 0 0 1 1.73-.81 2.16 2.16 0 0 1 2.18 2.36z" fill="#fff"/><path d="m150 304.87a3.07 3.07 0 1 1 3.06 3.06 3 3 0 0 1 -3.06-3.06zm4.64 0a1.57 1.57 0 1 0 -1.58 1.6 1.55 1.55 0 0 0 1.57-1.6z" fill="#fff"/><path d="m160.25 301.86v1.67a1.45 1.45 0 0 0 -1.76 1.47v2.77h-1.49v-5.77h1.49v1a1.79 1.79 0 0 1 1.76-1.14z" fill="#fff"/><path d="m54.36 295.38c0-.95.67-1.35 1.51-.88l6.52 3.66a1.07 1.07 0 0 1 .61 1v11.11a1.08 1.08 0 0 1 -.61 1.05l-6.56 3.68a.92.92 0 0 1 -1.47-.87c0-.86 0-17.95 0-18.8" fill="#ce132e"/><path d="m54.36 298v13.53l-.46.23-5.76 3.24c-.85.48-1.5.11-1.5-.86v-18.75c0-1 .65-1.33 1.51-.85l5.85 3.26.39.2" fill="#e83c40"/></svg>